<mxfile host="app.diagrams.net" modified="2023-11-10T12:41:05.740Z" agent="Mozilla/5.0 (Windows NT 10.0; Win64; x64) AppleWebKit/537.36 (KHTML, like Gecko) Chrome/118.0.0.0 Safari/537.36" version="22.1.0" etag="b-imYuQ5Fj-E-4oOLTYi" type="github">
  <diagram name="PÃ¡gina-1" id="F5tFjEb0o9fMC5toWHK1">
    <mxGraphModel>
      <root>
        <mxCell id="0" />
        <mxCell id="1" parent="0" />
      </root>
    </mxGraphModel>
  </diagram>
</mxfile>
